<?xml version="1.0" encoding="UTF-8"?>
<svg xmlns="http://www.w3.org/2000/svg" width="1400" height="900" viewBox="0 0 1400 900">
  <defs>
    <filter id="shadow" x="-5%" y="-5%" width="115%" height="115%">
      <feDropShadow dx="2" dy="4" stdDeviation="6" flood-color="#00000022"/>
    </filter>
    <marker id="arrow" markerWidth="10" markerHeight="7" refX="9" refY="3.5" orient="auto">
      <polygon points="0 0, 10 3.5, 0 7" fill="#64748b"/>
    </marker>
  </defs>
  <rect width="1400" height="900" fill="#f8fafc"/>
  <text x="700" y="50" text-anchor="middle" font-family="Arial,sans-serif" font-size="26" font-weight="bold" fill="#1e293b">Diagrama Entidad-Relación (ERD) — SmartBooking</text>
  <line x1="100" y1="64" x2="1300" y2="64" stroke="#cbd5e1" stroke-width="1.5"/>

  <!-- Entidades -->
  
      <rect x="60" y="160" width="300" height="320" rx="10" fill="white" stroke="#6366f1" stroke-width="2.5" filter="url(#shadow)"/>
      <rect x="60" y="160" width="300" height="42" rx="10" fill="#6366f1"/>
      <rect x="60" y="192" width="300" height="10" fill="#6366f1"/>
      <text x="210" y="187" text-anchor="middle" font-family="Arial,sans-serif" font-size="15" font-weight="bold" fill="white">USER</text>
      <rect x="61" y="200" width="298" height="22" fill="#f8fafc"/><text x="74" y="216" font-family="Arial,sans-serif" font-size="12" fill="#dc2626">🔑 id: INT</text><rect x="61" y="222" width="298" height="22" fill="white"/><text x="74" y="238" font-family="Arial,sans-serif" font-size="12" fill="#374151">email: VARCHAR</text><rect x="61" y="244" width="298" height="22" fill="#f8fafc"/><text x="74" y="260" font-family="Arial,sans-serif" font-size="12" fill="#374151">password: VARCHAR</text><rect x="61" y="266" width="298" height="22" fill="white"/><text x="74" y="282" font-family="Arial,sans-serif" font-size="12" fill="#374151">user_type: VARCHAR</text><rect x="61" y="288" width="298" height="22" fill="#f8fafc"/><text x="74" y="304" font-family="Arial,sans-serif" font-size="12" fill="#374151">nombre: VARCHAR</text><rect x="61" y="310" width="298" height="22" fill="white"/><text x="74" y="326" font-family="Arial,sans-serif" font-size="12" fill="#374151">apellidos: VARCHAR</text><rect x="61" y="332" width="298" height="22" fill="#f8fafc"/><text x="74" y="348" font-family="Arial,sans-serif" font-size="12" fill="#374151">dni: VARCHAR</text><rect x="61" y="354" width="298" height="22" fill="white"/><text x="74" y="370" font-family="Arial,sans-serif" font-size="12" fill="#374151">telefono: VARCHAR</text><rect x="61" y="376" width="298" height="22" fill="#f8fafc"/><text x="74" y="392" font-family="Arial,sans-serif" font-size="12" fill="#374151">nombre_empresa: VARCHAR</text><rect x="61" y="398" width="298" height="22" fill="white"/><text x="74" y="414" font-family="Arial,sans-serif" font-size="12" fill="#374151">cif: VARCHAR</text><rect x="61" y="420" width="298" height="22" fill="#f8fafc"/><text x="74" y="436" font-family="Arial,sans-serif" font-size="12" fill="#374151">sector: VARCHAR</text><rect x="61" y="442" width="298" height="22" fill="white"/><text x="74" y="458" font-family="Arial,sans-serif" font-size="12" fill="#374151">roles: JSON</text>
    
  
      <rect x="540" y="280" width="320" height="276" rx="10" fill="white" stroke="#f59e0b" stroke-width="2.5" filter="url(#shadow)"/>
      <rect x="540" y="280" width="320" height="42" rx="10" fill="#f59e0b"/>
      <rect x="540" y="312" width="320" height="10" fill="#f59e0b"/>
      <text x="700" y="307" text-anchor="middle" font-family="Arial,sans-serif" font-size="15" font-weight="bold" fill="white">BOOKING</text>
      <rect x="541" y="320" width="318" height="22" fill="#f8fafc"/><text x="554" y="336" font-family="Arial,sans-serif" font-size="12" fill="#dc2626">🔑 id: INT</text><rect x="541" y="342" width="318" height="22" fill="white"/><text x="554" y="358" font-family="Arial,sans-serif" font-size="12" fill="#7c3aed">🔗 user_id → USER</text><rect x="541" y="364" width="318" height="22" fill="#f8fafc"/><text x="554" y="380" font-family="Arial,sans-serif" font-size="12" fill="#7c3aed">🔗 resource_id → RESOURCE</text><rect x="541" y="386" width="318" height="22" fill="white"/><text x="554" y="402" font-family="Arial,sans-serif" font-size="12" fill="#374151">fecha_inicio: DATETIME</text><rect x="541" y="408" width="318" height="22" fill="#f8fafc"/><text x="554" y="424" font-family="Arial,sans-serif" font-size="12" fill="#374151">fecha_fin: DATETIME</text><rect x="541" y="430" width="318" height="22" fill="white"/><text x="554" y="446" font-family="Arial,sans-serif" font-size="12" fill="#374151">estado: VARCHAR</text><rect x="541" y="452" width="318" height="22" fill="#f8fafc"/><text x="554" y="468" font-family="Arial,sans-serif" font-size="12" fill="#374151">num_asistentes: INT</text><rect x="541" y="474" width="318" height="22" fill="white"/><text x="554" y="490" font-family="Arial,sans-serif" font-size="12" fill="#374151">motivo: TEXT</text><rect x="541" y="496" width="318" height="22" fill="#f8fafc"/><text x="554" y="512" font-family="Arial,sans-serif" font-size="12" fill="#374151">precio_total: DECIMAL</text><rect x="541" y="518" width="318" height="22" fill="white"/><text x="554" y="534" font-family="Arial,sans-serif" font-size="12" fill="#374151">cliente_nombre: VARCHAR</text>
    
  
      <rect x="1040" y="160" width="310" height="210" rx="10" fill="white" stroke="#10b981" stroke-width="2.5" filter="url(#shadow)"/>
      <rect x="1040" y="160" width="310" height="42" rx="10" fill="#10b981"/>
      <rect x="1040" y="192" width="310" height="10" fill="#10b981"/>
      <text x="1195" y="187" text-anchor="middle" font-family="Arial,sans-serif" font-size="15" font-weight="bold" fill="white">RESOURCE</text>
      <rect x="1041" y="200" width="308" height="22" fill="#f8fafc"/><text x="1054" y="216" font-family="Arial,sans-serif" font-size="12" fill="#dc2626">🔑 id: INT</text><rect x="1041" y="222" width="308" height="22" fill="white"/><text x="1054" y="238" font-family="Arial,sans-serif" font-size="12" fill="#7c3aed">🔗 category_id → CATEGORY</text><rect x="1041" y="244" width="308" height="22" fill="#f8fafc"/><text x="1054" y="260" font-family="Arial,sans-serif" font-size="12" fill="#374151">nombre: VARCHAR</text><rect x="1041" y="266" width="308" height="22" fill="white"/><text x="1054" y="282" font-family="Arial,sans-serif" font-size="12" fill="#374151">descripcion: TEXT</text><rect x="1041" y="288" width="308" height="22" fill="#f8fafc"/><text x="1054" y="304" font-family="Arial,sans-serif" font-size="12" fill="#374151">capacidad: INT</text><rect x="1041" y="310" width="308" height="22" fill="white"/><text x="1054" y="326" font-family="Arial,sans-serif" font-size="12" fill="#374151">precio_hora: DECIMAL</text><rect x="1041" y="332" width="308" height="22" fill="#f8fafc"/><text x="1054" y="348" font-family="Arial,sans-serif" font-size="12" fill="#374151">disponible: BOOLEAN</text>
    
  
      <rect x="1040" y="630" width="310" height="144" rx="10" fill="white" stroke="#0ea5e9" stroke-width="2.5" filter="url(#shadow)"/>
      <rect x="1040" y="630" width="310" height="42" rx="10" fill="#0ea5e9"/>
      <rect x="1040" y="662" width="310" height="10" fill="#0ea5e9"/>
      <text x="1195" y="657" text-anchor="middle" font-family="Arial,sans-serif" font-size="15" font-weight="bold" fill="white">CATEGORY</text>
      <rect x="1041" y="670" width="308" height="22" fill="#f8fafc"/><text x="1054" y="686" font-family="Arial,sans-serif" font-size="12" fill="#dc2626">🔑 id: INT</text><rect x="1041" y="692" width="308" height="22" fill="white"/><text x="1054" y="708" font-family="Arial,sans-serif" font-size="12" fill="#374151">nombre: VARCHAR</text><rect x="1041" y="714" width="308" height="22" fill="#f8fafc"/><text x="1054" y="730" font-family="Arial,sans-serif" font-size="12" fill="#374151">descripcion: TEXT</text><rect x="1041" y="736" width="308" height="22" fill="white"/><text x="1054" y="752" font-family="Arial,sans-serif" font-size="12" fill="#374151">color: VARCHAR</text>
    

  <!-- Relación USER → BOOKING -->
  <line x1="360" y1="360" x2="540" y2="460" stroke="#64748b" stroke-width="2" marker-end="url(#arrow)"/>
  <text x="450" y="402" text-anchor="middle" font-family="Arial,sans-serif" font-size="12" fill="#1e293b" font-weight="bold">hace</text>
  <text x="372" y="354" font-family="Arial,sans-serif" font-size="13" fill="#dc2626" font-weight="bold">1</text>
  <text x="520" y="454" font-family="Arial,sans-serif" font-size="13" fill="#dc2626" font-weight="bold">N</text>

  <!-- Relación RESOURCE → BOOKING -->
  <line x1="1040" y1="320" x2="860" y2="380" stroke="#64748b" stroke-width="2" marker-end="url(#arrow)"/>
  <text x="950" y="340" text-anchor="middle" font-family="Arial,sans-serif" font-size="12" fill="#1e293b" font-weight="bold">se reserva en</text>
  <text x="1026" y="314" font-family="Arial,sans-serif" font-size="13" fill="#dc2626" font-weight="bold">1</text>
  <text x="866" y="374" font-family="Arial,sans-serif" font-size="13" fill="#dc2626" font-weight="bold">N</text>

  <!-- Relación CATEGORY → RESOURCE -->
  <line x1="1195" y1="630" x2="1195" y2="370" stroke="#64748b" stroke-width="2" marker-end="url(#arrow)"/>
  <text x="1245" y="500" text-anchor="middle" font-family="Arial,sans-serif" font-size="12" fill="#1e293b" font-weight="bold">agrupa</text>
  <text x="1203" y="374" font-family="Arial,sans-serif" font-size="13" fill="#dc2626" font-weight="bold">N</text>
  <text x="1203" y="624" font-family="Arial,sans-serif" font-size="13" fill="#dc2626" font-weight="bold">1</text>

  <!-- Leyenda -->
  <rect x="60" y="820" width="380" height="60" rx="8" fill="white" stroke="#e2e8f0" stroke-width="1.5"/>
  <text x="80" y="844" font-family="Arial,sans-serif" font-size="12" fill="#dc2626" font-weight="bold">🔑</text><text x="98" y="844" font-family="Arial,sans-serif" font-size="12" fill="#374151"> Clave primaria</text>
  <text x="220" y="844" font-family="Arial,sans-serif" font-size="12" fill="#7c3aed" font-weight="bold">🔗</text><text x="238" y="844" font-family="Arial,sans-serif" font-size="12" fill="#374151"> Clave foránea</text>
  <text x="80" y="868" font-family="Arial,sans-serif" font-size="12" fill="#dc2626" font-weight="bold">1</text><text x="92" y="868" font-family="Arial,sans-serif" font-size="12" fill="#374151"> / </text><text x="104" y="868" font-family="Arial,sans-serif" font-size="12" fill="#dc2626" font-weight="bold">N</text><text x="116" y="868" font-family="Arial,sans-serif" font-size="12" fill="#374151"> Cardinalidad de la relación</text>

  <text x="700" y="888" text-anchor="middle" font-family="Arial,sans-serif" font-size="11" fill="#94a3b8">SmartBooking — Proyecto Final de Ciclo — 2026</text>
</svg>